<svg width="420" height="53" viewBox="0 0 420 53" fill="none" xmlns="http://www.w3.org/2000/svg">
<path d="M14.0781 3.14914C12.2208 2.73368 12.5228 0 14.426 0H57.613H393.5C408.136 0 420 11.8645 420 26.5V26.5C420 41.1355 408.136 53 393.5 53H224.246H50.9982C42.6499 53 35.1733 47.832 32.2234 40.0222V40.0222C30.2034 34.6745 29.6379 28.8867 30.5846 23.2492L31.5018 17.7877C32.4766 11.9826 28.7406 6.42902 22.9962 5.14405L14.0781 3.14914Z" fill="#E11D8A"/>
<path d="M65.7 23.575L62.61 34H60.675L58.485 26.11L56.16 34L54.24 34.015L51.285 23.575H53.1L55.26 32.065L57.6 23.575H59.52L61.695 32.02L63.87 23.575H65.7ZM66.5404 29.83C66.5404 29 66.7104 28.265 67.0504 27.625C67.4004 26.985 67.8704 26.49 68.4604 26.14C69.0604 25.78 69.7204 25.6 70.4404 25.6C71.0904 25.6 71.6554 25.73 72.1354 25.99C72.6254 26.24 73.0154 26.555 73.3054 26.935V25.735H75.0304V34H73.3054V32.77C73.0154 33.16 72.6204 33.485 72.1204 33.745C71.6204 34.005 71.0504 34.135 70.4104 34.135C69.7004 34.135 69.0504 33.955 68.4604 33.595C67.8704 33.225 67.4004 32.715 67.0504 32.065C66.7104 31.405 66.5404 30.66 66.5404 29.83ZM73.3054 29.86C73.3054 29.29 73.1854 28.795 72.9454 28.375C72.7154 27.955 72.4104 27.635 72.0304 27.415C71.6504 27.195 71.2404 27.085 70.8004 27.085C70.3604 27.085 69.9504 27.195 69.5704 27.415C69.1904 27.625 68.8804 27.94 68.6404 28.36C68.4104 28.77 68.2954 29.26 68.2954 29.83C68.2954 30.4 68.4104 30.9 68.6404 31.33C68.8804 31.76 69.1904 32.09 69.5704 32.32C69.9604 32.54 70.3704 32.65 70.8004 32.65C71.2404 32.65 71.6504 32.54 72.0304 32.32C72.4104 32.1 72.7154 31.78 72.9454 31.36C73.1854 30.93 73.3054 30.43 73.3054 29.86ZM81.4464 25.6C82.0964 25.6 82.6764 25.735 83.1864 26.005C83.7064 26.275 84.1114 26.675 84.4014 27.205C84.6914 27.735 84.8364 28.375 84.8364 29.125V34H83.1414V29.38C83.1414 28.64 82.9564 28.075 82.5864 27.685C82.2164 27.285 81.7114 27.085 81.0714 27.085C80.4314 27.085 79.9214 27.285 79.5414 27.685C79.1714 28.075 78.9864 28.64 78.9864 29.38V34H77.2764V25.735H78.9864V26.68C79.2664 26.34 79.6214 26.075 80.0514 25.885C80.4914 25.695 80.9564 25.6 81.4464 25.6ZM89.0126 27.13V31.705C89.0126 32.015 89.0826 32.24 89.2226 32.38C89.3726 32.51 89.6226 32.575 89.9726 32.575H91.0226V34H89.6726C88.9026 34 88.3126 33.82 87.9026 33.46C87.4926 33.1 87.2876 32.515 87.2876 31.705V27.13H86.3126V25.735H87.2876V23.68H89.0126V25.735H91.0226V27.13H89.0126ZM98.4901 27.13V31.705C98.4901 32.015 98.5601 32.24 98.7001 32.38C98.8501 32.51 99.1001 32.575 99.4501 32.575H100.5V34H99.1501C98.3801 34 97.7901 33.82 97.3801 33.46C96.9701 33.1 96.7651 32.515 96.7651 31.705V27.13H95.7901V25.735H96.7651V23.68H98.4901V25.735H100.5V27.13H98.4901ZM105.661 34.135C104.881 34.135 104.176 33.96 103.546 33.61C102.916 33.25 102.421 32.75 102.061 32.11C101.701 31.46 101.521 30.71 101.521 29.86C101.521 29.02 101.706 28.275 102.076 27.625C102.446 26.975 102.951 26.475 103.591 26.125C104.231 25.775 104.946 25.6 105.736 25.6C106.526 25.6 107.241 25.775 107.881 26.125C108.521 26.475 109.026 26.975 109.396 27.625C109.766 28.275 109.951 29.02 109.951 29.86C109.951 30.7 109.761 31.445 109.381 32.095C109.001 32.745 108.481 33.25 107.821 33.61C107.171 33.96 106.451 34.135 105.661 34.135ZM105.661 32.65C106.101 32.65 106.511 32.545 106.891 32.335C107.281 32.125 107.596 31.81 107.836 31.39C108.076 30.97 108.196 30.46 108.196 29.86C108.196 29.26 108.081 28.755 107.851 28.345C107.621 27.925 107.316 27.61 106.936 27.4C106.556 27.19 106.146 27.085 105.706 27.085C105.266 27.085 104.856 27.19 104.476 27.4C104.106 27.61 103.811 27.925 103.591 28.345C103.371 28.755 103.261 29.26 103.261 29.86C103.261 30.75 103.486 31.44 103.936 31.93C104.396 32.41 104.971 32.65 105.661 32.65ZM126.638 25.735L124.073 34H122.273L120.608 27.895L118.943 34H117.143L114.563 25.735H116.303L118.028 32.38L119.783 25.735H121.568L123.248 32.35L124.958 25.735H126.638ZM131.501 34.135C130.721 34.135 130.016 33.96 129.386 33.61C128.756 33.25 128.261 32.75 127.901 32.11C127.541 31.46 127.361 30.71 127.361 29.86C127.361 29.02 127.546 28.275 127.916 27.625C128.286 26.975 128.791 26.475 129.431 26.125C130.071 25.775 130.786 25.6 131.576 25.6C132.366 25.6 133.081 25.775 133.721 26.125C134.361 26.475 134.866 26.975 135.236 27.625C135.606 28.275 135.791 29.02 135.791 29.86C135.791 30.7 135.601 31.445 135.221 32.095C134.841 32.745 134.321 33.25 133.661 33.61C133.011 33.96 132.291 34.135 131.501 34.135ZM131.501 32.65C131.941 32.65 132.351 32.545 132.731 32.335C133.121 32.125 133.436 31.81 133.676 31.39C133.916 30.97 134.036 30.46 134.036 29.86C134.036 29.26 133.921 28.755 133.691 28.345C133.461 27.925 133.156 27.61 132.776 27.4C132.396 27.19 131.986 27.085 131.546 27.085C131.106 27.085 130.696 27.19 130.316 27.4C129.946 27.61 129.651 27.925 129.431 28.345C129.211 28.755 129.101 29.26 129.101 29.86C129.101 30.75 129.326 31.44 129.776 31.93C130.236 32.41 130.811 32.65 131.501 32.65ZM139.191 26.935C139.441 26.515 139.771 26.19 140.181 25.96C140.601 25.72 141.096 25.6 141.666 25.6V27.37H141.231C140.561 27.37 140.051 27.54 139.701 27.88C139.361 28.22 139.191 28.81 139.191 29.65V34H137.481V25.735H139.191V26.935ZM146.508 29.875L150.318 34H148.008L144.948 30.445V34H143.238V22.9H144.948V29.35L147.948 25.735H150.318L146.508 29.875ZM166.54 25.735L163.975 34H162.175L160.51 27.895L158.845 34H157.045L154.465 25.735H156.205L157.93 32.38L159.685 25.735H161.47L163.15 32.35L164.86 25.735H166.54ZM168.688 24.64C168.378 24.64 168.118 24.535 167.908 24.325C167.698 24.115 167.593 23.855 167.593 23.545C167.593 23.235 167.698 22.975 167.908 22.765C168.118 22.555 168.378 22.45 168.688 22.45C168.988 22.45 169.243 22.555 169.453 22.765C169.663 22.975 169.768 23.235 169.768 23.545C169.768 23.855 169.663 24.115 169.453 24.325C169.243 24.535 168.988 24.64 168.688 24.64ZM169.528 25.735V34H167.818V25.735H169.528ZM173.768 27.13V31.705C173.768 32.015 173.838 32.24 173.978 32.38C174.128 32.51 174.378 32.575 174.728 32.575H175.778V34H174.428C173.658 34 173.068 33.82 172.658 33.46C172.248 33.1 172.043 32.515 172.043 31.705V27.13H171.068V25.735H172.043V23.68H173.768V25.735H175.778V27.13H173.768ZM181.629 25.6C182.259 25.6 182.819 25.735 183.309 26.005C183.809 26.275 184.199 26.675 184.479 27.205C184.769 27.735 184.914 28.375 184.914 29.125V34H183.219V29.38C183.219 28.64 183.034 28.075 182.664 27.685C182.294 27.285 181.789 27.085 181.149 27.085C180.509 27.085 179.999 27.285 179.619 27.685C179.249 28.075 179.064 28.64 179.064 29.38V34H177.354V22.9H179.064V26.695C179.354 26.345 179.719 26.075 180.159 25.885C180.609 25.695 181.099 25.6 181.629 25.6ZM198.477 25.735V34H196.767V33.025C196.497 33.365 196.142 33.635 195.702 33.835C195.272 34.025 194.812 34.12 194.322 34.12C193.672 34.12 193.087 33.985 192.567 33.715C192.057 33.445 191.652 33.045 191.352 32.515C191.062 31.985 190.917 31.345 190.917 30.595V25.735H192.612V30.34C192.612 31.08 192.797 31.65 193.167 32.05C193.537 32.44 194.042 32.635 194.682 32.635C195.322 32.635 195.827 32.44 196.197 32.05C196.577 31.65 196.767 31.08 196.767 30.34V25.735H198.477ZM203.733 34.135C203.083 34.135 202.498 34.02 201.978 33.79C201.468 33.55 201.063 33.23 200.763 32.83C200.463 32.42 200.303 31.965 200.283 31.465H202.053C202.083 31.815 202.248 32.11 202.548 32.35C202.858 32.58 203.243 32.695 203.703 32.695C204.183 32.695 204.553 32.605 204.813 32.425C205.083 32.235 205.218 31.995 205.218 31.705C205.218 31.395 205.068 31.165 204.768 31.015C204.478 30.865 204.013 30.7 203.373 30.52C202.753 30.35 202.248 30.185 201.858 30.025C201.468 29.865 201.128 29.62 200.838 29.29C200.558 28.96 200.418 28.525 200.418 27.985C200.418 27.545 200.548 27.145 200.808 26.785C201.068 26.415 201.438 26.125 201.918 25.915C202.408 25.705 202.968 25.6 203.598 25.6C204.538 25.6 205.293 25.84 205.863 26.32C206.443 26.79 206.753 27.435 206.793 28.255H205.083C205.053 27.885 204.903 27.59 204.633 27.37C204.363 27.15 203.998 27.04 203.538 27.04C203.088 27.04 202.743 27.125 202.503 27.295C202.263 27.465 202.143 27.69 202.143 27.97C202.143 28.19 202.223 28.375 202.383 28.525C202.543 28.675 202.738 28.795 202.968 28.885C203.198 28.965 203.538 29.07 203.988 29.2C204.588 29.36 205.078 29.525 205.458 29.695C205.848 29.855 206.183 30.095 206.463 30.415C206.743 30.735 206.888 31.16 206.898 31.69C206.898 32.16 206.768 32.58 206.508 32.95C206.248 33.32 205.878 33.61 205.398 33.82C204.928 34.03 204.373 34.135 203.733 34.135ZM211.551 23.425C212.571 23.425 213.386 23.705 213.996 24.265C214.616 24.825 214.926 25.59 214.926 26.56C214.926 27.57 214.606 28.33 213.966 28.84C213.326 29.35 212.476 29.605 211.416 29.605L211.356 30.79H209.871L209.796 28.435H210.291C211.261 28.435 212.001 28.305 212.511 28.045C213.031 27.785 213.291 27.29 213.291 26.56C213.291 26.03 213.136 25.615 212.826 25.315C212.526 25.015 212.106 24.865 211.566 24.865C211.026 24.865 210.601 25.01 210.291 25.3C209.981 25.59 209.826 25.995 209.826 26.515H208.221C208.221 25.915 208.356 25.38 208.626 24.91C208.896 24.44 209.281 24.075 209.781 23.815C210.291 23.555 210.881 23.425 211.551 23.425ZM210.591 34.105C210.281 34.105 210.021 34 209.811 33.79C209.601 33.58 209.496 33.32 209.496 33.01C209.496 32.7 209.601 32.44 209.811 32.23C210.021 32.02 210.281 31.915 210.591 31.915C210.891 31.915 211.146 32.02 211.356 32.23C211.566 32.44 211.671 32.7 211.671 33.01C211.671 33.32 211.566 33.58 211.356 33.79C211.146 34 210.891 34.105 210.591 34.105Z" fill="white"/>
</svg>
