<svg width="302" height="62" viewBox="0 0 392 72" fill="none" xmlns="http://www.w3.org/2000/svg">
<path d="M13.0646 4.11977C10.896 3.41851 11.4009 0.216797 13.68 0.216797H54.5925H363.722C379.186 0.216797 391.722 12.7528 391.722 28.2168V43.4943C391.722 58.9583 379.186 71.4943 363.722 71.4943H209.611H49.6842C41.3482 71.4943 34.0627 65.8678 31.9553 57.8026C29.4095 48.0593 28.6994 37.9272 29.8614 27.924L31.9184 10.2165L13.0646 4.11977Z" fill="#E11D8A"/>
<path d="M94.0791 27.2728L88.7231 45.3428H85.3691L81.5731 31.6668L77.5431 45.3428L74.2151 45.3688L69.0931 27.2728H72.2391L75.9831 41.9888L80.0391 27.2728H83.3671L87.1371 41.9108L90.9071 27.2728H94.0791ZM95.5357 38.1148C95.5357 36.6761 95.8304 35.4021 96.4197 34.2928C97.0264 33.1834 97.8411 32.3254 98.8637 31.7188C99.9037 31.0948 101.048 30.7828 102.296 30.7828C103.422 30.7828 104.402 31.0081 105.234 31.4588C106.083 31.8921 106.759 32.4381 107.262 33.0968V31.0168H110.252V45.3428H107.262V43.2108C106.759 43.8868 106.074 44.4501 105.208 44.9008C104.341 45.3514 103.353 45.5768 102.244 45.5768C101.013 45.5768 99.8864 45.2648 98.8637 44.6408C97.8411 43.9994 97.0264 43.1154 96.4197 41.9888C95.8304 40.8448 95.5357 39.5534 95.5357 38.1148ZM107.262 38.1668C107.262 37.1788 107.054 36.3208 106.638 35.5928C106.239 34.8648 105.71 34.3101 105.052 33.9288C104.393 33.5474 103.682 33.3568 102.92 33.3568C102.157 33.3568 101.446 33.5474 100.788 33.9288C100.129 34.2928 99.5917 34.8388 99.1757 35.5668C98.7771 36.2774 98.5777 37.1268 98.5777 38.1148C98.5777 39.1028 98.7771 39.9694 99.1757 40.7148C99.5917 41.4601 100.129 42.0321 100.788 42.4308C101.464 42.8121 102.174 43.0028 102.92 43.0028C103.682 43.0028 104.393 42.8121 105.052 42.4308C105.71 42.0494 106.239 41.4948 106.638 40.7668C107.054 40.0214 107.262 39.1548 107.262 38.1668ZM121.373 30.7828C122.499 30.7828 123.505 31.0168 124.389 31.4848C125.29 31.9528 125.992 32.6461 126.495 33.5648C126.997 34.4834 127.249 35.5928 127.249 36.8928V45.3428H124.311V37.3348C124.311 36.0521 123.99 35.0728 123.349 34.3968C122.707 33.7034 121.832 33.3568 120.723 33.3568C119.613 33.3568 118.729 33.7034 118.071 34.3968C117.429 35.0728 117.109 36.0521 117.109 37.3348V45.3428H114.145V31.0168H117.109V32.6548C117.594 32.0654 118.209 31.6061 118.955 31.2768C119.717 30.9474 120.523 30.7828 121.373 30.7828ZM134.488 33.4348V41.3648C134.488 41.9021 134.609 42.2921 134.852 42.5348C135.112 42.7601 135.545 42.8728 136.152 42.8728H137.972V45.3428H135.632C134.297 45.3428 133.274 45.0308 132.564 44.4068C131.853 43.7828 131.498 42.7688 131.498 41.3648V33.4348H129.808V31.0168H131.498V27.4548H134.488V31.0168H137.972V33.4348H134.488ZM150.915 33.4348V41.3648C150.915 41.9021 151.037 42.2921 151.279 42.5348C151.539 42.7601 151.973 42.8728 152.579 42.8728H154.399V45.3428H152.059C150.725 45.3428 149.702 45.0308 148.991 44.4068C148.281 43.7828 147.925 42.7688 147.925 41.3648V33.4348H146.235V31.0168H147.925V27.4548H150.915V31.0168H154.399V33.4348H150.915ZM163.345 45.5768C161.993 45.5768 160.771 45.2734 159.679 44.6668C158.587 44.0428 157.729 43.1761 157.105 42.0668C156.481 40.9401 156.169 39.6401 156.169 38.1668C156.169 36.7108 156.49 35.4194 157.131 34.2928C157.772 33.1661 158.648 32.2994 159.757 31.6928C160.866 31.0861 162.106 30.7828 163.475 30.7828C164.844 30.7828 166.084 31.0861 167.193 31.6928C168.302 32.2994 169.178 33.1661 169.819 34.2928C170.46 35.4194 170.781 36.7108 170.781 38.1668C170.781 39.6228 170.452 40.9141 169.793 42.0408C169.134 43.1674 168.233 44.0428 167.089 44.6668C165.962 45.2734 164.714 45.5768 163.345 45.5768ZM163.345 43.0028C164.108 43.0028 164.818 42.8208 165.477 42.4568C166.153 42.0928 166.699 41.5468 167.115 40.8188C167.531 40.0908 167.739 39.2068 167.739 38.1668C167.739 37.1268 167.54 36.2514 167.141 35.5408C166.742 34.8128 166.214 34.2668 165.555 33.9028C164.896 33.5388 164.186 33.3568 163.423 33.3568C162.66 33.3568 161.95 33.5388 161.291 33.9028C160.65 34.2668 160.138 34.8128 159.757 35.5408C159.376 36.2514 159.185 37.1268 159.185 38.1668C159.185 39.7094 159.575 40.9054 160.355 41.7548C161.152 42.5868 162.149 43.0028 163.345 43.0028ZM199.705 31.0168L195.259 45.3428H192.139L189.253 34.7608L186.367 45.3428H183.247L178.775 31.0168H181.791L184.781 42.5348L187.823 31.0168H190.917L193.829 42.4828L196.793 31.0168H199.705ZM208.134 45.5768C206.782 45.5768 205.56 45.2734 204.468 44.6668C203.376 44.0428 202.518 43.1761 201.894 42.0668C201.27 40.9401 200.958 39.6401 200.958 38.1668C200.958 36.7108 201.279 35.4194 201.92 34.2928C202.562 33.1661 203.437 32.2994 204.546 31.6928C205.656 31.0861 206.895 30.7828 208.264 30.7828C209.634 30.7828 210.873 31.0861 211.982 31.6928C213.092 32.2994 213.967 33.1661 214.608 34.2928C215.25 35.4194 215.57 36.7108 215.57 38.1668C215.57 39.6228 215.241 40.9141 214.582 42.0408C213.924 43.1674 213.022 44.0428 211.878 44.6668C210.752 45.2734 209.504 45.5768 208.134 45.5768ZM208.134 43.0028C208.897 43.0028 209.608 42.8208 210.266 42.4568C210.942 42.0928 211.488 41.5468 211.904 40.8188C212.32 40.0908 212.528 39.2068 212.528 38.1668C212.528 37.1268 212.329 36.2514 211.93 35.5408C211.532 34.8128 211.003 34.2668 210.344 33.9028C209.686 33.5388 208.975 33.3568 208.212 33.3568C207.45 33.3568 206.739 33.5388 206.08 33.9028C205.439 34.2668 204.928 34.8128 204.546 35.5408C204.165 36.2514 203.974 37.1268 203.974 38.1668C203.974 39.7094 204.364 40.9054 205.144 41.7548C205.942 42.5868 206.938 43.0028 208.134 43.0028ZM221.464 33.0968C221.898 32.3688 222.47 31.8054 223.18 31.4068C223.908 30.9908 224.766 30.7828 225.754 30.7828V33.8508H225C223.839 33.8508 222.955 34.1454 222.348 34.7348C221.759 35.3241 221.464 36.3468 221.464 37.8028V45.3428H218.5V31.0168H221.464V33.0968ZM234.147 38.1928L240.751 45.3428H236.747L231.443 39.1808V45.3428H228.479V26.1028H231.443V37.2828L236.643 31.0168H240.751L234.147 38.1928ZM268.869 31.0168L264.423 45.3428H261.303L258.417 34.7608L255.531 45.3428H252.411L247.939 31.0168H250.955L253.945 42.5348L256.987 31.0168H260.081L262.993 42.4828L265.957 31.0168H268.869ZM272.592 29.1188C272.055 29.1188 271.604 28.9368 271.24 28.5728C270.876 28.2088 270.694 27.7581 270.694 27.2208C270.694 26.6834 270.876 26.2328 271.24 25.8688C271.604 25.5048 272.055 25.3228 272.592 25.3228C273.112 25.3228 273.554 25.5048 273.918 25.8688C274.282 26.2328 274.464 26.6834 274.464 27.2208C274.464 27.7581 274.282 28.2088 273.918 28.5728C273.554 28.9368 273.112 29.1188 272.592 29.1188ZM274.048 31.0168V45.3428H271.084V31.0168H274.048ZM281.398 33.4348V41.3648C281.398 41.9021 281.519 42.2921 281.762 42.5348C282.022 42.7601 282.455 42.8728 283.062 42.8728H284.882V45.3428H282.542C281.207 45.3428 280.184 45.0308 279.474 44.4068C278.763 43.7828 278.408 42.7688 278.408 41.3648V33.4348H276.718V31.0168H278.408V27.4548H281.398V31.0168H284.882V33.4348H281.398ZM295.024 30.7828C296.116 30.7828 297.086 31.0168 297.936 31.4848C298.802 31.9528 299.478 32.6461 299.964 33.5648C300.466 34.4834 300.718 35.5928 300.718 36.8928V45.3428H297.78V37.3348C297.78 36.0521 297.459 35.0728 296.818 34.3968C296.176 33.7034 295.301 33.3568 294.192 33.3568C293.082 33.3568 292.198 33.7034 291.54 34.3968C290.898 35.0728 290.578 36.0521 290.578 37.3348V45.3428H287.614V26.1028H290.578V32.6808C291.08 32.0741 291.713 31.6061 292.476 31.2768C293.256 30.9474 294.105 30.7828 295.024 30.7828ZM324.226 31.0168V45.3428H321.262V43.6528C320.794 44.2421 320.179 44.7101 319.416 45.0568C318.671 45.3861 317.874 45.5508 317.024 45.5508C315.898 45.5508 314.884 45.3168 313.982 44.8488C313.098 44.3808 312.396 43.6874 311.876 42.7688C311.374 41.8501 311.122 40.7408 311.122 39.4408V31.0168H314.06V38.9988C314.06 40.2814 314.381 41.2694 315.022 41.9628C315.664 42.6388 316.539 42.9768 317.648 42.9768C318.758 42.9768 319.633 42.6388 320.274 41.9628C320.933 41.2694 321.262 40.2814 321.262 38.9988V31.0168H324.226ZM333.337 45.5768C332.21 45.5768 331.196 45.3774 330.295 44.9788C329.411 44.5628 328.709 44.0081 328.189 43.3148C327.669 42.6041 327.392 41.8154 327.357 40.9488H330.425C330.477 41.5554 330.763 42.0668 331.283 42.4828C331.82 42.8814 332.488 43.0808 333.285 43.0808C334.117 43.0808 334.758 42.9248 335.209 42.6128C335.677 42.2834 335.911 41.8674 335.911 41.3648C335.911 40.8274 335.651 40.4288 335.131 40.1688C334.628 39.9088 333.822 39.6228 332.713 39.3108C331.638 39.0161 330.763 38.7301 330.087 38.4528C329.411 38.1754 328.822 37.7508 328.319 37.1788C327.834 36.6068 327.591 35.8528 327.591 34.9168C327.591 34.1541 327.816 33.4608 328.267 32.8368C328.718 32.1954 329.359 31.6928 330.191 31.3288C331.04 30.9648 332.011 30.7828 333.103 30.7828C334.732 30.7828 336.041 31.1988 337.029 32.0308C338.034 32.8454 338.572 33.9634 338.641 35.3848H335.677C335.625 34.7434 335.365 34.2321 334.897 33.8508C334.429 33.4694 333.796 33.2788 332.999 33.2788C332.219 33.2788 331.621 33.4261 331.205 33.7208C330.789 34.0154 330.581 34.4054 330.581 34.8908C330.581 35.2721 330.72 35.5928 330.997 35.8528C331.274 36.1128 331.612 36.3208 332.011 36.4768C332.41 36.6154 332.999 36.7974 333.779 37.0228C334.819 37.3001 335.668 37.5861 336.327 37.8808C337.003 38.1581 337.584 38.5741 338.069 39.1288C338.554 39.6834 338.806 40.4201 338.823 41.3388C338.823 42.1534 338.598 42.8814 338.147 43.5228C337.696 44.1641 337.055 44.6668 336.223 45.0308C335.408 45.3948 334.446 45.5768 333.337 45.5768ZM346.888 27.0128C348.656 27.0128 350.068 27.4981 351.126 28.4688C352.2 29.4394 352.738 30.7654 352.738 32.4468C352.738 34.1974 352.183 35.5148 351.074 36.3988C349.964 37.2828 348.491 37.7248 346.654 37.7248L346.55 39.7788H343.976L343.846 35.6968H344.704C346.385 35.6968 347.668 35.4714 348.552 35.0208C349.453 34.5701 349.904 33.7121 349.904 32.4468C349.904 31.5281 349.635 30.8088 349.098 30.2888C348.578 29.7688 347.85 29.5088 346.914 29.5088C345.978 29.5088 345.241 29.7601 344.704 30.2628C344.166 30.7654 343.898 31.4674 343.898 32.3688H341.116C341.116 31.3288 341.35 30.4014 341.818 29.5868C342.286 28.7721 342.953 28.1394 343.82 27.6888C344.704 27.2381 345.726 27.0128 346.888 27.0128ZM345.224 45.5248C344.686 45.5248 344.236 45.3428 343.872 44.9788C343.508 44.6148 343.326 44.1641 343.326 43.6268C343.326 43.0894 343.508 42.6388 343.872 42.2748C344.236 41.9108 344.686 41.7288 345.224 41.7288C345.744 41.7288 346.186 41.9108 346.55 42.2748C346.914 42.6388 347.096 43.0894 347.096 43.6268C347.096 44.1641 346.914 44.6148 346.55 44.9788C346.186 45.3428 345.744 45.5248 345.224 45.5248Z" fill="white"/>
</svg>
