<svg width="632" height="200" viewBox="0 0 632 200" fill="none" xmlns="http://www.w3.org/2000/svg">
<path d="M70.715 9.67351V69.5985H54.055V36.5335L42.75 69.5985H28.81L17.42 36.2785V69.5985H0.76V9.67351H20.905L35.95 48.6035L50.655 9.67351H70.715ZM77.4785 45.7135C77.4785 40.7835 78.3568 36.4768 80.1135 32.7935C81.9268 29.1102 84.3635 26.2768 87.4235 24.2935C90.5401 22.3102 93.9968 21.3185 97.7935 21.3185C101.08 21.3185 103.913 21.9702 106.293 23.2735C108.673 24.5768 110.515 26.3335 111.818 28.5435V21.9135H128.478V69.5985H111.818V62.9685C110.515 65.1785 108.645 66.9352 106.208 68.2385C103.828 69.5418 101.023 70.1935 97.7935 70.1935C93.9968 70.1935 90.5401 69.2018 87.4235 67.2185C84.3635 65.2352 81.9268 62.4018 80.1135 58.7185C78.3568 54.9785 77.4785 50.6435 77.4785 45.7135ZM111.818 45.7135C111.818 42.6535 110.968 40.2452 109.268 38.4885C107.625 36.7318 105.585 35.8535 103.148 35.8535C100.655 35.8535 98.5868 36.7318 96.9435 38.4885C95.3001 40.1885 94.4785 42.5968 94.4785 45.7135C94.4785 48.7735 95.3001 51.2102 96.9435 53.0235C98.5868 54.7802 100.655 55.6585 103.148 55.6585C105.585 55.6585 107.625 54.7802 109.268 53.0235C110.968 51.2668 111.818 48.8302 111.818 45.7135ZM135.252 45.7135C135.252 40.7835 136.13 36.4768 137.887 32.7935C139.7 29.1102 142.165 26.2768 145.282 24.2935C148.399 22.3102 151.855 21.3185 155.652 21.3185C158.712 21.3185 161.432 21.9702 163.812 23.2735C166.249 24.5202 168.147 26.2485 169.507 28.4585V6.69851H186.252V69.5985H169.507V62.9685C168.204 65.1785 166.362 66.9352 163.982 68.2385C161.602 69.5418 158.797 70.1935 155.567 70.1935C151.77 70.1935 148.314 69.2018 145.197 67.2185C142.137 65.2352 139.7 62.4018 137.887 58.7185C136.13 54.9785 135.252 50.6435 135.252 45.7135ZM169.592 45.7135C169.592 42.6535 168.742 40.2452 167.042 38.4885C165.399 36.7318 163.359 35.8535 160.922 35.8535C158.429 35.8535 156.36 36.7318 154.717 38.4885C153.074 40.1885 152.252 42.5968 152.252 45.7135C152.252 48.7735 153.074 51.2102 154.717 53.0235C156.36 54.7802 158.429 55.6585 160.922 55.6585C163.359 55.6585 165.399 54.7802 167.042 53.0235C168.742 51.2668 169.592 48.8302 169.592 45.7135ZM241.305 45.2035C241.305 46.5068 241.22 47.8102 241.05 49.1135H209.515C209.685 51.7202 210.394 53.6752 211.64 54.9785C212.944 56.2252 214.587 56.8485 216.57 56.8485C219.347 56.8485 221.33 55.6018 222.52 53.1085H240.285C239.549 56.3952 238.104 59.3418 235.95 61.9485C233.854 64.4985 231.19 66.5102 227.96 67.9835C224.73 69.4568 221.16 70.1935 217.25 70.1935C212.547 70.1935 208.354 69.2018 204.67 67.2185C201.044 65.2352 198.182 62.4018 196.085 58.7185C194.045 55.0352 193.025 50.7002 193.025 45.7135C193.025 40.7268 194.045 36.4202 196.085 32.7935C198.125 29.1102 200.959 26.2768 204.585 24.2935C208.269 22.3102 212.49 21.3185 217.25 21.3185C221.954 21.3185 226.119 22.2818 229.745 24.2085C233.372 26.1352 236.205 28.9118 238.245 32.5385C240.285 36.1085 241.305 40.3302 241.305 45.2035ZM224.305 41.0385C224.305 38.9985 223.625 37.4118 222.265 36.2785C220.905 35.0885 219.205 34.4935 217.165 34.4935C215.125 34.4935 213.454 35.0602 212.15 36.1935C210.847 37.2702 209.997 38.8852 209.6 41.0385H224.305ZM334.858 21.9135L322.703 69.5985H304.003L297.373 40.6985L290.488 69.5985H271.873L259.803 21.9135H276.378L281.733 53.5335L288.788 21.9135H306.638L313.948 53.6185L319.218 21.9135H334.858ZM348.013 17.4935C345.066 17.4935 342.686 16.7002 340.873 15.1135C339.116 13.4702 338.238 11.4302 338.238 8.99351C338.238 6.50017 339.116 4.43184 340.873 2.78851C342.686 1.14517 345.066 0.323506 348.013 0.323506C350.903 0.323506 353.226 1.14517 354.983 2.78851C356.796 4.43184 357.703 6.50017 357.703 8.99351C357.703 11.4302 356.796 13.4702 354.983 15.1135C353.226 16.7002 350.903 17.4935 348.013 17.4935ZM356.258 21.9135V69.5985H339.598V21.9135H356.258ZM393.88 55.4035V69.5985H386.655C374.472 69.5985 368.38 63.5635 368.38 51.4935V35.7685H362.515V21.9135H368.38V10.3535H385.125V21.9135H393.795V35.7685H385.125V51.7485C385.125 53.0518 385.409 53.9868 385.975 54.5535C386.599 55.1202 387.619 55.4035 389.035 55.4035H393.88ZM432.887 21.4885C438.327 21.4885 442.633 23.3302 445.807 27.0135C449.037 30.6402 450.652 35.5702 450.652 41.8035V69.5985H433.992V44.0135C433.992 41.2935 433.283 39.1685 431.867 37.6385C430.45 36.0518 428.552 35.2585 426.172 35.2585C423.678 35.2585 421.723 36.0518 420.307 37.6385C418.89 39.1685 418.182 41.2935 418.182 44.0135V69.5985H401.522V6.69851H418.182V28.7135C419.655 26.5602 421.638 24.8318 424.132 23.5285C426.682 22.1685 429.6 21.4885 432.887 21.4885ZM516.693 9.67351V22.9335H492.723V33.4735H510.403V46.1385H492.723V69.5985H476.063V9.67351H516.693ZM572.499 21.9135V69.5985H555.754V62.7985C554.338 64.9518 552.383 66.7085 549.889 68.0685C547.396 69.3718 544.534 70.0235 541.304 70.0235C535.751 70.0235 531.359 68.2102 528.129 64.5835C524.956 60.9002 523.369 55.9135 523.369 49.6235V21.9135H539.944V47.4985C539.944 50.2185 540.653 52.3718 542.069 53.9585C543.543 55.4885 545.469 56.2535 547.849 56.2535C550.286 56.2535 552.213 55.4885 553.629 53.9585C555.046 52.3718 555.754 50.2185 555.754 47.4985V21.9135H572.499ZM613.176 21.4885C618.672 21.4885 623.036 23.3302 626.266 27.0135C629.496 30.6402 631.111 35.5702 631.111 41.8035V69.5985H614.451V44.0135C614.451 41.2935 613.742 39.1685 612.326 37.6385C610.909 36.0518 609.011 35.2585 606.631 35.2585C604.137 35.2585 602.182 36.0518 600.766 37.6385C599.349 39.1685 598.641 41.2935 598.641 44.0135V69.5985H581.981V21.9135H598.641V28.7135C600.114 26.5602 602.097 24.8318 604.591 23.5285C607.084 22.1685 609.946 21.4885 613.176 21.4885ZM48.105 136.649C48.105 140.275 47.255 143.59 45.555 146.594C43.9117 149.54 41.39 151.92 37.99 153.734C34.6467 155.49 30.5383 156.369 25.665 156.369H17.42V176.599H0.76V116.674H25.665C30.4817 116.674 34.5617 117.524 37.905 119.224C41.305 120.924 43.855 123.275 45.555 126.279C47.255 129.282 48.105 132.739 48.105 136.649ZM24.05 143.109C28.7533 143.109 31.105 140.955 31.105 136.649C31.105 132.285 28.7533 130.104 24.05 130.104H17.42V143.109H24.05ZM71.4581 137.329C73.3281 134.609 75.5948 132.455 78.2581 130.869C80.9214 129.282 83.7831 128.489 86.8431 128.489V146.254H82.1681C78.5414 146.254 75.8498 146.962 74.0931 148.379C72.3364 149.795 71.4581 152.26 71.4581 155.774V176.599H54.7981V128.914H71.4581V137.329ZM115.001 177.194C110.241 177.194 105.962 176.202 102.166 174.219C98.4257 172.235 95.479 169.402 93.3257 165.719C91.1723 162.035 90.0957 157.7 90.0957 152.714C90.0957 147.784 91.1723 143.477 93.3257 139.794C95.5357 136.11 98.5107 133.277 102.251 131.294C106.047 129.31 110.326 128.319 115.086 128.319C119.846 128.319 124.096 129.31 127.836 131.294C131.632 133.277 134.607 136.11 136.761 139.794C138.971 143.477 140.076 147.784 140.076 152.714C140.076 157.644 138.971 161.979 136.761 165.719C134.607 169.402 131.632 172.235 127.836 174.219C124.039 176.202 119.761 177.194 115.001 177.194ZM115.001 162.744C117.324 162.744 119.251 161.894 120.781 160.194C122.367 158.437 123.161 155.944 123.161 152.714C123.161 149.484 122.367 147.019 120.781 145.319C119.251 143.619 117.352 142.769 115.086 142.769C112.819 142.769 110.921 143.619 109.391 145.319C107.861 147.019 107.096 149.484 107.096 152.714C107.096 156 107.832 158.494 109.306 160.194C110.779 161.894 112.677 162.744 115.001 162.744ZM172.609 142.769H165.129V176.599H148.384V142.769H143.199V128.914H148.384V128.489C148.384 122.369 150.169 117.694 153.739 114.464C157.365 111.177 162.55 109.534 169.294 109.534C170.654 109.534 171.702 109.562 172.439 109.619V123.814C171.985 123.757 171.362 123.729 170.569 123.729C168.755 123.729 167.424 124.154 166.574 125.004C165.724 125.797 165.242 127.1 165.129 128.914H172.609V142.769ZM224.123 152.204C224.123 153.507 224.038 154.81 223.868 156.114H192.333C192.503 158.72 193.211 160.675 194.458 161.979C195.761 163.225 197.404 163.849 199.388 163.849C202.164 163.849 204.148 162.602 205.338 160.109H223.103C222.366 163.395 220.921 166.342 218.768 168.949C216.671 171.499 214.008 173.51 210.778 174.984C207.548 176.457 203.978 177.194 200.068 177.194C195.364 177.194 191.171 176.202 187.488 174.219C183.861 172.235 180.999 169.402 178.903 165.719C176.863 162.035 175.843 157.7 175.843 152.714C175.843 147.727 176.863 143.42 178.903 139.794C180.943 136.11 183.776 133.277 187.403 131.294C191.086 129.31 195.308 128.319 200.068 128.319C204.771 128.319 208.936 129.282 212.563 131.209C216.189 133.135 219.023 135.912 221.063 139.539C223.103 143.109 224.123 147.33 224.123 152.204ZM207.123 148.039C207.123 145.999 206.443 144.412 205.083 143.279C203.723 142.089 202.023 141.494 199.983 141.494C197.943 141.494 196.271 142.06 194.968 143.194C193.664 144.27 192.814 145.885 192.418 148.039H207.123ZM251.256 177.194C246.949 177.194 243.096 176.485 239.696 175.069C236.352 173.595 233.689 171.612 231.706 169.119C229.779 166.569 228.702 163.707 228.476 160.534H244.626C244.852 162.064 245.561 163.254 246.751 164.104C247.941 164.954 249.414 165.379 251.171 165.379C252.531 165.379 253.607 165.095 254.401 164.529C255.194 163.962 255.591 163.225 255.591 162.319C255.591 161.129 254.939 160.25 253.636 159.684C252.332 159.117 250.179 158.494 247.176 157.814C243.776 157.134 240.942 156.369 238.676 155.519C236.409 154.669 234.426 153.28 232.726 151.354C231.082 149.427 230.261 146.82 230.261 143.534C230.261 140.7 231.026 138.15 232.556 135.884C234.086 133.56 236.324 131.719 239.271 130.359C242.274 128.999 245.872 128.319 250.066 128.319C256.299 128.319 261.201 129.849 264.771 132.909C268.341 135.969 270.409 139.992 270.976 144.979H255.931C255.647 143.449 254.967 142.287 253.891 141.494C252.871 140.644 251.482 140.219 249.726 140.219C248.366 140.219 247.317 140.474 246.581 140.984C245.901 141.494 245.561 142.202 245.561 143.109C245.561 144.242 246.212 145.12 247.516 145.744C248.819 146.31 250.916 146.905 253.806 147.529C257.262 148.265 260.124 149.087 262.391 149.994C264.714 150.9 266.726 152.374 268.426 154.414C270.182 156.397 271.061 159.117 271.061 162.574C271.061 165.35 270.239 167.844 268.596 170.054C267.009 172.264 264.714 174.02 261.711 175.324C258.764 176.57 255.279 177.194 251.256 177.194ZM299.566 177.194C295.26 177.194 291.406 176.485 288.006 175.069C284.663 173.595 282 171.612 280.016 169.119C278.09 166.569 277.013 163.707 276.786 160.534H292.936C293.163 162.064 293.871 163.254 295.061 164.104C296.251 164.954 297.725 165.379 299.481 165.379C300.841 165.379 301.918 165.095 302.711 164.529C303.505 163.962 303.901 163.225 303.901 162.319C303.901 161.129 303.25 160.25 301.946 159.684C300.643 159.117 298.49 158.494 295.486 157.814C292.086 157.134 289.253 156.369 286.986 155.519C284.72 154.669 282.736 153.28 281.036 151.354C279.393 149.427 278.571 146.82 278.571 143.534C278.571 140.7 279.336 138.15 280.866 135.884C282.396 133.56 284.635 131.719 287.581 130.359C290.585 128.999 294.183 128.319 298.376 128.319C304.61 128.319 309.511 129.849 313.081 132.909C316.651 135.969 318.72 139.992 319.286 144.979H304.241C303.958 143.449 303.278 142.287 302.201 141.494C301.181 140.644 299.793 140.219 298.036 140.219C296.676 140.219 295.628 140.474 294.891 140.984C294.211 141.494 293.871 142.202 293.871 143.109C293.871 144.242 294.523 145.12 295.826 145.744C297.13 146.31 299.226 146.905 302.116 147.529C305.573 148.265 308.435 149.087 310.701 149.994C313.025 150.9 315.036 152.374 316.736 154.414C318.493 156.397 319.371 159.117 319.371 162.574C319.371 165.35 318.55 167.844 316.906 170.054C315.32 172.264 313.025 174.02 310.021 175.324C307.075 176.57 303.59 177.194 299.566 177.194ZM335.977 124.494C333.03 124.494 330.65 123.7 328.837 122.114C327.08 120.47 326.202 118.43 326.202 115.994C326.202 113.5 327.08 111.432 328.837 109.789C330.65 108.145 333.03 107.324 335.977 107.324C338.867 107.324 341.19 108.145 342.947 109.789C344.76 111.432 345.667 113.5 345.667 115.994C345.667 118.43 344.76 120.47 342.947 122.114C341.19 123.7 338.867 124.494 335.977 124.494ZM344.222 128.914V176.599H327.562V128.914H344.222ZM375.894 177.194C371.134 177.194 366.856 176.202 363.059 174.219C359.319 172.235 356.373 169.402 354.219 165.719C352.066 162.035 350.989 157.7 350.989 152.714C350.989 147.784 352.066 143.477 354.219 139.794C356.429 136.11 359.404 133.277 363.144 131.294C366.941 129.31 371.219 128.319 375.979 128.319C380.739 128.319 384.989 129.31 388.729 131.294C392.526 133.277 395.501 136.11 397.654 139.794C399.864 143.477 400.969 147.784 400.969 152.714C400.969 157.644 399.864 161.979 397.654 165.719C395.501 169.402 392.526 172.235 388.729 174.219C384.933 176.202 380.654 177.194 375.894 177.194ZM375.894 162.744C378.218 162.744 380.144 161.894 381.674 160.194C383.261 158.437 384.054 155.944 384.054 152.714C384.054 149.484 383.261 147.019 381.674 145.319C380.144 143.619 378.246 142.769 375.979 142.769C373.713 142.769 371.814 143.619 370.284 145.319C368.754 147.019 367.989 149.484 367.989 152.714C367.989 156 368.726 158.494 370.199 160.194C371.673 161.894 373.571 162.744 375.894 162.744ZM438.942 128.489C444.439 128.489 448.802 130.33 452.032 134.014C455.262 137.64 456.877 142.57 456.877 148.804V176.599H440.217V151.014C440.217 148.294 439.509 146.169 438.092 144.639C436.676 143.052 434.777 142.259 432.397 142.259C429.904 142.259 427.949 143.052 426.532 144.639C425.116 146.169 424.407 148.294 424.407 151.014V176.599H407.747V128.914H424.407V135.714C425.881 133.56 427.864 131.832 430.357 130.529C432.851 129.169 435.712 128.489 438.942 128.489ZM463.299 152.714C463.299 147.784 464.177 143.477 465.934 139.794C467.747 136.11 470.184 133.277 473.244 131.294C476.36 129.31 479.817 128.319 483.614 128.319C486.9 128.319 489.734 128.97 492.114 130.274C494.494 131.577 496.335 133.334 497.639 135.544V128.914H514.299V176.599H497.639V169.969C496.335 172.179 494.465 173.935 492.029 175.239C489.649 176.542 486.844 177.194 483.614 177.194C479.817 177.194 476.36 176.202 473.244 174.219C470.184 172.235 467.747 169.402 465.934 165.719C464.177 161.979 463.299 157.644 463.299 152.714ZM497.639 152.714C497.639 149.654 496.789 147.245 495.089 145.489C493.445 143.732 491.405 142.854 488.969 142.854C486.475 142.854 484.407 143.732 482.764 145.489C481.12 147.189 480.299 149.597 480.299 152.714C480.299 155.774 481.12 158.21 482.764 160.024C484.407 161.78 486.475 162.659 488.969 162.659C491.405 162.659 493.445 161.78 495.089 160.024C496.789 158.267 497.639 155.83 497.639 152.714ZM540.452 113.699V176.599H523.792V113.699H540.452ZM566.6 113.699V176.599H549.94V113.699H566.6ZM627.427 128.914L597.167 199.294H579.062L590.452 174.559L570.902 128.914H589.432L599.462 155.944L609.152 128.914H627.427Z" fill="url(#paint0_linear_3_34)"/>
<defs>
<linearGradient id="paint0_linear_3_34" x1="-4" y1="94" x2="668" y2="94" gradientUnits="userSpaceOnUse">
<stop stop-color="#0057FF"/>
<stop offset="1" stop-color="#E9000E" stop-opacity="0.76"/>
</linearGradient>
</defs>
</svg>
