<svg width="142" height="223" viewBox="0 0 142 223" fill="none" xmlns="http://www.w3.org/2000/svg">
<path d="M122.571 17.055L121.912 17.8076L121.918 17.8126L122.571 17.055ZM123.462 107.64L124.111 108.401L124.112 108.4L123.462 107.64ZM75.3479 123.381L75.338 122.381L74.4117 122.39L74.3501 123.314L75.3479 123.381ZM73.8629 145.656V146.656H74.7984L74.8607 145.723L73.8629 145.656ZM29.3129 145.656L28.3132 145.683L28.3394 146.656H29.3129V145.656ZM27.8279 90.414V89.414H26.8006L26.8282 90.4409L27.8279 90.414ZM80.3969 84.771L79.9764 83.8636L79.9678 83.8677L80.3969 84.771ZM54.5579 48.24L55.265 48.9471L55.2736 48.9385L55.282 48.9296L54.5579 48.24ZM48.6179 64.575V65.575H49.6179V64.575H48.6179ZM0.800863 64.575L-0.198599 64.6078L-0.166887 65.575H0.800863V64.575ZM8.22586 31.905L7.35762 31.4088L7.35377 31.4156L7.35003 31.4224L8.22586 31.905ZM32.5799 9.036L33.0402 9.92377L33.0463 9.92056L32.5799 9.036ZM30.2039 215.154L29.5097 215.874L29.5228 215.886L29.5363 215.899L30.2039 215.154ZM30.2039 175.653L29.5224 174.921L29.516 174.927L29.5097 174.933L30.2039 175.653ZM73.5659 175.653L72.8717 176.373L72.878 176.379L72.8844 176.385L73.5659 175.653ZM73.5659 215.154L74.2463 215.887L74.2473 215.886L73.5659 215.154ZM71.7839 1.42298C92.7923 1.42298 109.466 6.91702 121.912 17.8076L123.229 16.3024C110.332 5.01694 93.1475 -0.577019 71.7839 -0.577019V1.42298ZM121.918 17.8126C134.526 28.6744 140.876 44.0156 140.876 63.981H142.876C142.876 43.5544 136.356 27.6116 123.224 16.2974L121.918 17.8126ZM140.876 63.981C140.876 82.3502 134.831 96.6059 122.812 106.88L124.112 108.4C136.645 97.6861 142.876 82.8358 142.876 63.981H140.876ZM122.813 106.879C110.956 116.987 95.1642 122.185 75.338 122.381L75.3578 124.381C95.5276 124.181 111.812 118.885 124.111 108.401L122.813 106.879ZM74.3501 123.314L72.8651 145.589L74.8607 145.723L76.3456 123.448L74.3501 123.314ZM73.8629 144.656H29.3129V146.656H73.8629V144.656ZM30.3125 145.629L28.8275 90.3871L26.8282 90.4409L28.3132 145.683L30.3125 145.629ZM27.8279 91.414H45.6479V89.414H27.8279V91.414ZM45.6479 91.414C60.9482 91.414 72.707 89.5307 80.8259 85.6743L79.9678 83.8677C72.2467 87.5352 60.8396 89.414 45.6479 89.414V91.414ZM80.8173 85.6783C85.0354 83.7236 88.244 80.9474 90.3893 77.3371C92.5307 73.7332 93.5739 69.3639 93.5739 64.278H91.5739C91.5739 69.092 90.5875 73.0883 88.6699 76.3154C86.7562 79.5361 83.8763 82.0564 79.9764 83.8637L80.8173 85.6783ZM93.5739 64.278C93.5739 57.1635 91.6384 51.4464 87.6559 47.2542L86.2059 48.6317C89.7474 52.3596 91.5739 57.5325 91.5739 64.278H93.5739ZM87.6559 47.2542C83.6628 43.051 78.1278 41.003 71.1899 41.003V43.003C77.7159 43.003 82.675 44.915 86.2059 48.6317L87.6559 47.2542ZM71.1899 41.003C63.8587 41.003 58.0261 43.1483 53.8337 47.5503L55.282 48.9296C59.0096 45.0157 64.2651 43.003 71.1899 43.003V41.003ZM53.8508 47.5329C49.6608 51.7229 47.6179 57.4465 47.6179 64.575H49.6179C49.6179 57.8435 51.5349 52.6771 55.265 48.9471L53.8508 47.5329ZM48.6179 63.575H0.800863V65.575H48.6179V63.575ZM1.80033 64.5422C1.40967 52.6271 3.85031 41.9179 9.1017 32.3876L7.35003 31.4224C1.90941 41.2961 -0.599941 52.3669 -0.198599 64.6078L1.80033 64.5422ZM9.09411 32.4011C14.5352 22.8793 22.5051 15.3864 33.0402 9.92375L32.1195 8.14824C21.2706 13.7736 13.0046 21.5267 7.35762 31.4088L9.09411 32.4011ZM33.0463 9.92056C43.7622 4.27035 56.6623 1.42298 71.7839 1.42298V-0.577019C56.4134 -0.577019 43.1775 2.31763 32.1135 8.15143L33.0463 9.92056ZM52.1819 221.876C43.4775 221.876 36.4017 219.368 30.8714 214.409L29.5363 215.899C35.49 221.236 43.0663 223.876 52.1819 223.876V221.876ZM30.898 214.434C25.55 209.277 22.8879 203.003 22.8879 195.552H20.8879C20.8879 203.545 23.7697 210.339 29.5097 215.874L30.898 214.434ZM22.8879 195.552C22.8879 187.895 25.5556 181.524 30.898 176.373L29.5097 174.933C23.7641 180.474 20.8879 187.369 20.8879 195.552H22.8879ZM30.8853 176.385C36.4168 171.235 43.4878 168.634 52.1819 168.634V166.634C43.0559 166.634 35.4749 169.379 29.5224 174.921L30.8853 176.385ZM52.1819 168.634C60.6718 168.634 67.539 171.231 72.8717 176.373L74.26 174.933C68.5047 169.383 61.116 166.634 52.1819 166.634V168.634ZM72.8844 176.385C78.4211 181.54 81.1789 187.907 81.1789 195.552H83.1789C83.1789 187.357 80.1947 180.458 74.2473 174.921L72.8844 176.385ZM81.1789 195.552C81.1789 202.991 78.427 209.262 72.8844 214.422L74.2473 215.886C80.1888 210.354 83.1789 203.557 83.1789 195.552H81.1789ZM72.8854 214.421C67.5544 219.371 60.6824 221.876 52.1819 221.876V223.876C61.1053 223.876 68.4893 221.233 74.2463 215.887L72.8854 214.421Z" fill="white"/>
</svg>
